<?xml version="1.0" standalone="no"?><!DOCTYPE svg PUBLIC "-//W3C//DTD SVG 1.1//EN" "http://www.w3.org/Graphics/SVG/1.1/DTD/svg11.dtd"><svg t="1540371917602" class="icon" style="" viewBox="0 0 1024 1024" version="1.1" xmlns="http://www.w3.org/2000/svg" p-id="1962" xmlns:xlink="http://www.w3.org/1999/xlink" width="200" height="200"><defs><style type="text/css"></style></defs><path d="M644.992 864q6.016 0-3.488 15.008T612.512 912t-46.016 32.992T509.984 960q-27.008 0-52-15.008t-44-32.992-28.992-32.992T378.976 864h266.016z m248-84.992Q900 788 899.488 796.512t-4.512 14.496-10.016 9.504-12 3.488H142.944q-14.016 0-20.512-11.488T126.944 784q16.992-30.016 40-67.008t43.488-79.488 35.488-90.016T260.928 448q0-50.016 14.016-90.016t36.512-70.016 52-51.008 61.504-32q-16-26.016-16-54.016 0-40.992 28-68.992t68.992-28 68.992 28 28 68.992q0 14.016-4 27.488t-11.008 24.512q34.016 11.008 64.512 32t52.992 52 36 71.008 13.504 88.992q0 50.016 15.008 98.496t36 92 44.512 79.488 42.496 62.016z m-425.984-628q0 16 11.008 27.488t27.008 11.488h2.016q16-0.992 27.008-12t11.008-27.008q0-16.992-11.008-28t-28-11.008-28 11.008-11.008 28z" fill="" p-id="1963"></path></svg>